# 3ds Max Wavefront OBJ Exporter v0.97b - (c)2007 guruware
# File Created: 15.10.2016 16:00:42

mtllib RockOutcrop5.mtl

#
# object outcropE
#

v  53.7178 0.7832 -19.1029
v  52.8324 0.0000 -16.4987
v  53.6260 1.7036 -16.3550
v  54.0126 1.7313 -18.5040
v  54.9910 -0.0000 -12.1799
v  55.0950 1.4025 -13.1688
v  70.1867 4.0967 -13.9278
v  66.2231 3.4577 -14.6809
v  62.4170 2.8657 -15.0035
v  63.3895 2.5958 -12.9892
v  63.6228 2.5310 -12.5059
v  57.0941 2.3173 -13.6140
v  63.1336 4.2520 -15.4921
v  65.7635 4.5802 -19.5688
v  61.9043 4.3139 -19.3027
v  61.5161 4.3920 -15.5845
v  65.6930 1.3158 -12.2987
v  61.7139 1.5711 -11.9454
v  64.8116 0.3665 -12.2831
v  55.9813 1.2444 -12.2773
v  60.2646 0.6219 -11.8137
v  67.6140 0.2104 -12.4073
v  70.8965 1.2387 -12.5198
v  70.9136 2.3274 -12.4322
v  59.8148 2.5463 -15.4718
v  57.1445 3.5955 -18.1560
v  60.3449 4.3354 -16.0725
v  57.2399 3.3906 -17.8272
v  54.0303 1.9336 -18.8934
v  56.4538 1.6543 -12.9863
v  55.4307 1.2878 -12.6096
v  70.8927 3.2300 -12.5148
v  70.5967 3.7172 -13.0563
v  68.9032 3.4454 -25.0311
v  64.0134 2.9671 -23.6036
v  69.1404 3.8926 -24.7013
v  63.4907 0.8885 -23.8605
v  60.0673 0.4923 -22.6809
v  63.3887 0.0000 -23.7350
v  68.4808 1.3481 -25.2064
v  68.3079 0.0000 -24.9015
v  59.6317 0.0000 -22.4382
v  53.3636 -0.0000 -19.4202
v  59.7173 2.7742 -21.8141
v  56.6741 2.5413 -20.0857
v  56.6570 2.1173 -13.2895
v  61.0041 0.0000 -11.9637
v  67.3827 0.0000 -12.3997
v  55.8073 2.9839 -18.4800
v  66.5638 4.3584 -14.7861
v  70.6876 3.7369 -16.5433
v  70.9599 3.5273 -16.5280
v  70.1866 0.0000 -22.8902
v  68.8075 0.0000 -24.6797
v  69.4939 1.1127 -23.4213
v  70.8481 2.1516 -20.8697
v  69.8091 3.7663 -23.4021
v  70.3427 3.9199 -22.1536
v  71.2509 2.8197 -14.8375
v  71.5506 2.2534 -17.7578
v  71.7793 1.8922 -21.1823
v  71.8629 2.0083 -20.8008
v  71.1711 0.6445 -15.1664
v  72.0369 1.5076 -20.7279
v  71.2435 -0.0000 -15.8155
v  71.9576 0.0000 -20.2815
v  71.8129 -0.0000 -20.8339
v  71.9057 1.1752 -21.1468
v  70.4061 4.3017 -21.4970
v  69.4093 4.1273 -16.5235
v  71.4460 1.3028 -12.4316
v  71.9082 1.0766 -12.3358
v  70.7825 4.1231 -21.2844
v  70.1704 4.0966 -22.1339
v  70.9059 3.2109 -21.1096
v  69.2785 4.5042 -21.8378
v  69.1891 3.5087 -25.0981
v  68.9902 1.2282 -24.8834
v  69.7566 0.0000 -12.2128
v  72.0385 -0.0000 -12.0957
v  72.2595 0.0000 -12.2270
v  60.3018 -0.0135 -11.8348
v  71.3717 -0.0000 -15.1785
v  64.7450 1.0321 -11.3018
v  64.6450 -0.0000 -11.5235
v  58.2870 0.0000 -11.8597
v  59.2616 1.5306 -11.8568
v  55.8645 0.0000 -11.7581
v  55.3309 1.5435 -11.6273
v  55.4823 2.7715 -10.6842
v  60.2093 2.9515 -10.5931
v  64.3101 1.8255 -10.6430
v  64.8883 1.5055 -9.0179
v  65.2443 0.0000 -9.1209
v  65.1802 0.0000 -11.0514
v  55.2517 2.8304 -9.4650
v  60.6257 2.6590 -8.9516
v  55.5088 2.9050 -10.4453
v  58.7493 0.0000 -9.4140
v  60.4099 2.4087 -8.7282
v  55.5177 1.7341 -9.2875
v  55.8402 0.0000 -9.3767
v  55.5403 2.7295 -9.0671
v  55.5407 0.0000 -11.5758
# 104 vertices

vn -0.8999 0.4147 -0.1352
vn -0.8846 0.4343 -0.1702
vn -0.8926 0.4177 -0.1697
vn -0.9427 0.3287 -0.0563
vn -0.8360 0.3548 0.4186
vn -0.8110 0.3761 0.4482
vn -0.8076 0.3784 0.4524
vn -0.8361 0.3542 0.4189
vn -0.1308 0.9093 0.3949
vn -0.1848 0.9657 0.1825
vn -0.1594 0.9654 0.2063
vn -0.1254 0.9757 0.1798
vn -0.0482 0.7408 0.6699
vn -0.0893 0.9382 0.3345
vn -0.0014 0.9997 0.0253
vn -0.0517 0.9941 -0.0957
vn -0.1259 0.9720 -0.1985
vn 0.0300 0.9994 -0.0179
vn 0.0320 0.0619 0.9976
vn -0.0086 0.3541 0.9352
vn 0.0717 0.0471 0.9963
vn -0.1873 0.4291 0.8836
vn -0.2025 0.2203 0.9542
vn -0.0024 0.0731 0.9973
vn 0.0308 -0.0133 0.9994
vn 0.0595 -0.0810 0.9949
vn 0.0274 0.0206 0.9994
vn -0.1283 0.9907 -0.0464
vn -0.1333 0.9910 -0.0112
vn -0.1805 0.9831 0.0293
vn -0.3987 0.9133 0.0835
vn -0.3307 0.8292 0.4506
vn -0.1991 0.9794 0.0327
vn -0.4258 0.3975 0.8128
vn -0.4920 0.5916 0.6388
vn -0.3877 0.7612 0.5198
vn -0.1007 0.3571 0.9286
vn -0.1958 0.3198 0.9270
vn -0.1261 0.3240 0.9376
vn -0.2130 0.7312 0.6480
vn -0.3214 0.8851 0.3367
vn -0.1992 0.9155 0.3496
vn -0.0309 0.4093 0.9119
vn -0.0898 0.8020 0.5906
vn -0.2898 0.4637 -0.8373
vn -0.2831 0.6235 -0.7288
vn 0.3235 0.8217 -0.4692
vn -0.3328 0.0778 -0.9398
vn -0.3902 0.0613 -0.9187
vn -0.2457 -0.1215 -0.9617
vn -0.2616 0.0142 -0.9651
vn -0.2659 0.0130 -0.9639
vn -0.2267 -0.1871 -0.9558
vn -0.7340 0.4269 0.5283
vn -0.4059 -0.0894 -0.9095
vn -0.4133 0.4725 -0.7784
vn -0.4314 0.4013 -0.8080
vn -0.3710 0.6299 -0.6824
vn -0.4145 0.6289 -0.6578
vn -0.3385 0.8413 0.4215
vn -0.8738 0.4596 -0.1589
vn -0.9654 0.2469 0.0843
vn -0.3157 0.8805 0.3537
vn 0.1137 -0.0936 0.9891
vn 0.0451 -0.0018 0.9990
vn -0.1730 0.8983 0.4040
vn -0.1356 0.7027 0.6984
vn -0.4715 0.5329 0.7027
vn -0.0691 0.9944 0.0797
vn -0.1984 0.2187 0.9554
vn -0.2093 0.1912 0.9590
vn 0.4711 0.8816 0.0295
vn 0.4649 0.8854 0.0027
vn 0.7884 0.6132 0.0489
vn 0.6233 0.7808 0.0435
vn 0.7307 0.0709 -0.6790
vn 0.8904 -0.0361 -0.4537
vn 0.8647 -0.0030 -0.5023
vn 0.8731 -0.0974 -0.4777
vn 0.8422 0.4114 -0.3486
vn 0.8290 0.3168 -0.4608
vn 0.9914 0.0188 0.1298
vn 0.9981 -0.0619 -0.0061
vn 0.9959 -0.0898 0.0056
vn 0.2835 0.9509 -0.1243
vn 0.2929 0.9480 -0.1246
vn 0.4081 0.9048 -0.1217
vn 0.1480 0.9523 -0.2667
vn 0.1330 0.9204 -0.3676
vn 0.1083 0.8993 -0.4236
vn 0.1497 0.9713 -0.1851
vn 0.9915 -0.0061 0.1296
vn 0.9938 -0.0243 0.1086
vn 0.9908 -0.0396 0.1293
vn 0.9869 0.1212 -0.1062
vn 0.9882 -0.0340 0.1492
vn 0.9982 -0.0599 -0.0065
vn 0.9896 0.0199 0.1425
vn 0.9914 -0.0438 0.1237
vn 0.9575 -0.1424 -0.2509
vn 0.9584 -0.0314 -0.2837
vn 0.3940 0.8972 -0.1994
vn 0.1745 0.9845 0.0198
vn 0.2441 0.9369 -0.2501
vn 0.7760 0.5624 -0.2856
vn 0.8772 0.3991 -0.2668
vn 0.7089 0.6631 -0.2402
vn 0.4702 0.7947 -0.3839
vn 0.8384 -0.1178 -0.5322
vn 0.1140 0.9831 -0.1435
vn 0.9989 0.0453 -0.0149
vn 0.9913 0.1301 -0.0207
vn 0.9439 0.3125 -0.1072
vn 0.9165 0.2155 -0.3372
vn 0.7260 -0.0409 -0.6865
vn 0.9322 0.0759 -0.3538
vn -0.0771 0.9711 -0.2260
vn 0.8248 0.5628 0.0555
vn 0.6825 0.0844 -0.7260
vn 0.9313 -0.1488 -0.3325
vn -0.3067 0.6650 -0.6810
vn -0.2534 0.1311 -0.9584
vn 0.4407 -0.2320 -0.8672
vn 0.5102 -0.1246 -0.8510
vn -0.0622 0.2352 0.9700
vn -0.0501 0.2116 0.9761
vn -0.0527 0.2167 0.9748
vn 0.4952 0.2458 0.8333
vn -0.1926 0.6910 0.6967
vn -0.0695 0.2651 0.9617
vn -0.2130 0.1925 0.9579
vn 0.0396 0.9988 0.0288
vn -0.4455 0.4165 0.7925
vn -0.1092 0.7816 0.6142
vn -0.4513 0.4376 -0.7777
vn -0.3148 -0.1037 -0.9435
vn -0.3444 0.8408 -0.4177
vn 0.0625 -0.0294 0.9976
vn -0.0779 0.1214 0.9895
vn 0.9213 0.2727 -0.2771
vn 0.9271 0.2907 -0.2368
vn 0.9367 0.2951 -0.1886
vn 0.7649 -0.2215 -0.6049
vn 0.6063 0.4500 -0.6557
vn 0.3707 0.1383 -0.9184
vn -0.0116 0.0093 -0.9999
vn 0.0234 0.0074 -0.9997
vn -0.2320 -0.0035 -0.9727
vn -0.1270 0.0401 -0.9911
vn 0.0431 0.6437 -0.7640
vn -0.8927 0.2450 -0.3783
vn -0.5458 0.6538 -0.5241
vn 0.0914 0.6320 -0.7696
vn 0.4916 0.6923 -0.5282
vn 0.9348 0.3315 -0.1274
vn 0.9564 0.2787 -0.0871
vn 0.8950 0.2965 -0.3334
vn 0.0015 0.9885 0.1512
vn 0.1619 0.9777 0.1337
vn 0.1198 0.9831 0.1381
vn -0.0075 0.9972 0.0739
vn 0.2614 0.9604 0.0961
vn 0.2620 0.9601 0.0977
vn -0.0431 -0.1973 0.9794
vn -0.0449 -0.0787 0.9959
vn -0.0260 -0.0983 0.9948
vn 0.0183 0.2284 0.9734
vn 0.1076 0.6089 0.7859
vn -0.0529 -0.1657 0.9847
vn 0.0128 -0.0490 0.9987
vn -0.0800 -0.1786 0.9807
vn -0.9723 -0.0557 0.2270
vn -0.5855 0.7336 -0.3450
vn -0.9826 -0.1291 0.1338
vn -0.9785 -0.1735 0.1112
vn -0.9381 -0.1796 0.2961
vn -0.8176 -0.1067 0.5658
vn 0.0080 0.9706 0.2404
vn -0.4882 -0.0953 -0.8675
# 179 vertex normals

vt 0.0482 0.6487 0.4606
vt 0.3120 0.5388 0.6978
vt 0.3164 0.7358 0.5905
vt 0.1013 0.7474 0.4459
vt 0.7274 0.6197 -0.0739
vt 0.6250 0.7644 0.0342
vt 0.4799 0.8801 0.0485
vt 0.1196 0.9146 0.0404
vt -0.1196 0.9753 0.0336
vt -0.0601 0.8121 0.1078
vt -0.0459 0.7771 0.4954
vt -0.7401 0.9356 0.2631
vt 0.5512 0.5523 0.7978
vt 0.8626 0.5805 1.0794
vt 0.6960 0.7660 0.8509
vt 0.4917 0.6382 0.9179
vt 0.1385 0.6394 0.5116
vt -0.2368 0.6953 0.5581
vt 0.0435 0.5585 0.5570
vt -0.9140 0.7603 0.4609
vt -1.0077 0.6464 0.4943
vt -0.3645 0.6337 0.6072
vt 0.3063 0.5140 0.5263
vt 0.6273 0.5718 0.5300
vt 0.6393 0.6771 0.5367
vt 0.3621 1.1629 0.0289
vt 0.1480 0.7970 -0.2223
vt 0.4489 0.9622 0.2343
vt 0.4700 0.7170 0.8694
vt 0.5601 0.9354 0.2631
vt 0.3566 -0.0088 0.4240
vt -0.0538 0.1076 0.1924
vt -0.4457 -0.0991 0.1104
vt 0.6995 0.2721 0.1830
vt 0.5136 0.2469 0.3214
vt 0.6544 0.0879 0.2057
vt 0.3680 0.2272 0.4298
vt 0.6354 0.8727 0.0142
vt 0.6877 0.7661 -0.1056
vt 0.5034 0.7733 -0.0623
vt 0.4977 0.8283 -0.0065
vt -0.1781 0.8373 0.6774
vt 0.3869 0.8528 0.8142
vt -0.1978 0.8995 0.6416
vt 0.4692 0.6366 0.6710
vt 0.8650 0.6735 0.6677
vt 0.5018 0.5679 0.6083
vt -0.0975 0.6262 0.5015
vt -0.0689 0.5130 0.4036
vt 0.9343 0.6231 0.6271
vt 1.6974 0.7510 0.6607
vt 1.6571 0.8549 0.6675
vt 0.7869 1.2089 0.6534
vt 0.9023 0.9056 0.7793
vt 1.2867 0.9450 0.7532
vt 1.2910 1.1904 0.4778
vt 0.3491 0.4937 0.4240
vt -0.0947 0.4438 0.1104
vt -0.0832 0.4225 0.2055
vt 0.0220 0.5560 0.5041
vt 0.0628 0.7648 0.4579
vt 0.5928 0.8979 0.3017
vt -0.3862 0.6313 0.6072
vt -0.3220 0.5635 0.5912
vt 0.2821 0.4964 0.5252
vt -0.8608 0.8381 0.2446
vt -0.9822 0.7896 0.4510
vt -0.8185 0.8982 0.6715
vt -0.0833 0.1408 0.1340
vt -0.2343 0.0535 0.1241
vt -0.4295 1.0582 0.0289
vt 1.0862 0.2280 -0.1108
vt 1.1118 0.3280 -0.1239
vt 0.9125 0.2002 0.3556
vt 0.7518 0.1321 0.4995
vt 0.7518 0.0749 0.2125
vt 0.9327 0.1777 0.1758
vt 0.7628 0.1232 1.2228
vt 1.0466 0.1814 0.9921
vt 0.7940 0.2948 1.3323
vt -0.7514 0.6074 0.7377
vt -0.3714 0.5785 0.5173
vt -0.4416 0.8750 0.7439
vt -0.6245 0.8838 0.8163
vt -1.6937 0.7293 0.2200
vt -1.2122 0.7753 0.5108
vt -0.1625 0.1970 -0.0962
vt 0.0766 0.1614 -0.0230
vt 0.3768 0.1292 0.0689
vt 0.6928 0.2044 0.2881
vt 0.7290 0.1092 0.1285
vt 0.9471 0.4300 -0.3706
vt 0.6886 0.1008 0.1647
vt -0.5962 0.1825 0.5515
vt -0.5725 0.0381 0.5627
vt -0.2464 0.0271 0.8575
vt 0.3763 0.2700 1.4820
vt -0.1539 -0.0418 0.9365
vt 0.3641 0.0346 1.4627
vt 0.0142 0.3247 1.1405
vt -0.3367 0.3122 0.8073
vt 0.4413 0.0602 1.4880
vt 0.4354 0.2355 1.4938
vt 1.1529 0.4162 0.8404
vt 0.8534 0.2749 0.6527
vt -0.0240 0.4678 4.9801
vt -0.0581 0.3809 0.8235
vt 0.4463 0.4076 0.8575
vt 1.1652 0.3856 0.6872
vt 1.1918 0.4414 0.5127
vt 1.1758 0.4524 0.6644
vt -0.7670 0.8677 0.8687
vt -0.7594 0.7494 0.8075
vt 1.1173 0.4921 1.0142
vt 1.2371 0.5190 0.3808
vt 1.2623 0.6106 0.4893
vt 0.3798 0.3377 1.4876
vt 0.4321 0.3326 1.4971
vt 1.3058 0.6127 0.1598
vt -0.2062 0.8478 0.5000
vt 0.0100 0.5514 4.3224
vt -0.6159 0.3022 0.5423
vt 0.7517 0.0167 -0.0794
vt -0.1346 0.5028 0.4709
vt -0.1680 0.6206 0.5000
vt 0.3856 0.6983 0.1676
vt 0.6059 0.6028 0.1980
vt 0.8481 0.5265 0.1976
vt 0.8698 0.6480 0.1895
vt 0.8717 0.5224 0.0906
vt 0.7679 0.7017 0.1158
vt 0.8282 0.6886 0.1707
vt 1.5970 0.3938 -0.4851
vt 0.6515 0.3501 0.8891
vt 0.0829 1.1747 1.2347
vt 0.3833 1.2211 1.3655
vt 1.6118 0.9783 0.7311
vt 1.4247 1.1020 0.5833
vt -0.3895 0.5709 0.5992
vt -0.8917 0.6199 0.4943
vt 0.3541 0.6837 0.1496
vt -0.0652 0.2068 0.9507
vt 0.4595 0.2972 0.9399
vt 0.9015 0.3576 0.9399
vt 1.0112 0.3781 0.9365
vt 0.8883 0.4680 0.8575
vt -0.4125 0.3474 0.6678
vt -0.4124 0.2423 0.6633
vt 0.1175 0.2137 0.5539
vt 0.0542 0.3467 0.5977
vt 0.3137 0.2022 0.4949
vt 0.3754 0.3301 0.4928
vt 0.3772 0.4561 0.4345
vt -0.0337 0.5260 0.5490
vt -0.3782 0.4622 0.6234
vt 0.7997 0.3125 0.4302
vt 0.7217 0.0607 0.5584
vt 0.9198 0.0235 0.4563
vt 0.9285 0.2522 0.3857
vt 0.6884 0.2553 0.4945
vt 0.4897 0.7433 0.1680
vt 0.9215 0.7557 0.4416
vt 0.8882 0.9024 0.3828
vt 0.4805 0.8245 0.1322
vt 1.3184 0.7692 0.5584
vt 1.2707 0.9136 0.4945
vt 0.6902 0.7578 0.6402
vt 1.1950 0.7852 0.7988
vt 1.1559 0.9026 0.8151
vt 0.7954 0.9517 0.7531
vt 0.8145 0.9815 0.7384
vt 0.4242 0.8797 0.5945
vt 0.4647 0.7430 0.5661
vt 0.4016 0.9565 0.6104
vt -0.4836 0.2735 0.6445
vt 0.7153 0.6111 0.2044
vt 0.9224 0.4394 0.0980
vt 0.9016 0.5513 0.0930
vt 0.8726 0.5606 0.1103
vt 0.5557 0.5625 0.0488
vt 0.6407 0.3476 -0.2180
vt 0.8276 0.3807 -0.0509
vt 0.9359 0.4060 -0.0294
vt 0.4937 0.7087 0.1832
vt 0.3571 0.2028 0.4877
vt 0.6492 0.7643 0.5423
vt 0.3775 0.4793 0.4238
# 187 texture coords

g outcropE
usemtl granite1
s 2
f -104/-187/-179 -103/-186/-178 -102/-185/-177 
f -104/-187/-179 -102/-185/-177 -101/-184/-176 
s 4
f -103/-186/-175 -100/-183/-174 -99/-182/-173 -102/-185/-172 
s 2
f -98/-181/-171 -97/-180/-170 -96/-179/-169 -95/-178/-168 
f -94/-177/-167 -95/-178/-168 -93/-176/-166 
s 16
f -92/-175/-165 -91/-174/-164 -90/-173/-163 -89/-172/-162 
s 2
f -88/-171/-161 -87/-170/-160 -86/-169/-159 
f -85/-168/-158 -100/-167/-157 -84/-166/-156 -87/-170/-160 
f -83/-165/-155 -82/-164/-154 -81/-163/-153 -88/-171/-161 
s 16
f -80/-162/-152 -101/-161/-151 -102/-185/-150 
f -79/-160/-149 -78/-159/-148 -90/-173/-163 
f -80/-162/-152 -102/-185/-150 -93/-158/-147 
usemtl granite2
s 8
f -80/-157/-146 -77/-156/-145 -76/-155/-144 
f -92/-154/-143 -89/-153/-142 -96/-152/-141 
f -80/-157/-146 -78/-151/-148 -77/-156/-145 
usemtl granite1
s 16
f -75/-150/-140 -99/-182/-139 -74/-149/-138 
s 2
f -73/-148/-137 -72/-147/-136 -94/-177/-167 
s 17
f -71/-146/-135 -70/-145/-134 -69/-144/-133 
s 4
f -70/-145/-134 -68/-143/-132 -67/-142/-131 
s 1
f -66/-141/-130 -68/-143/-129 -65/-140/-128 -64/-139/-127 
f -65/-140/-128 -68/-143/-129 -70/-145/-134 -71/-146/-135 
s 4
f -99/-182/-173 -100/-183/-174 -74/-149/-126 
f -63/-138/-125 -62/-137/-124 -67/-142/-131 
f -67/-142/-131 -62/-137/-124 -104/-136/-123 
s 20
f -90/-135/-163 -61/-134/-122 -60/-133/-121 -79/-132/-149 
s 8
f -80/-131/-146 -76/-130/-144 -101/-129/-120 
s 2
f -62/-128/-119 -103/-186/-178 -104/-187/-179 
f -104/-187/-179 -101/-184/-176 -76/-127/-118 
s 4
f -70/-145/-134 -67/-142/-131 -61/-134/-122 
s 16
f -59/-126/-117 -102/-185/-150 -99/-182/-139 
s 2
f -86/-169/-159 -84/-125/-156 -58/-124/-116 -57/-123/-115 
s 16
f -85/-168/-114 -75/-122/-140 -74/-121/-138 
s 2
f -59/-120/-113 -87/-170/-160 -94/-177/-167 
usemtl granite2
s 24
f -77/-156/-145 -78/-151/-148 -79/-119/-149 
f -77/-156/-145 -79/-119/-149 -56/-118/-112 -76/-155/-144 
s 8
f -96/-152/-141 -89/-153/-142 -80/-157/-146 
usemtl granite1
s 2
f -95/-178/-168 -96/-179/-169 -80/-117/-111 -93/-176/-166 
usemtl granite2
s 8
f -97/-116/-110 -55/-115/-109 -92/-154/-143 -96/-152/-141 
usemtl granite1
s 2
f -98/-181/-171 -95/-178/-168 -94/-177/-167 -72/-147/-136 
s 16
f -54/-114/-108 -98/-113/-107 -72/-112/-106 -53/-111/-105 
s 2
f -52/-110/-104 -51/-109/-103 -50/-108/-102 
f -49/-107/-101 -50/-106/-102 -48/-105/-100 -47/-104/-99 
s 4
f -73/-103/-98 -49/-107/-97 -53/-102/-96 
s 8
f -73/-101/-95 -46/-100/-94 -45/-99/-93 -49/-98/-92 
f -44/-97/-91 -50/-96/-90 -49/-98/-92 
f -49/-98/-92 -43/-95/-89 -44/-97/-91 
s 4
f -81/-94/-88 -82/-93/-87 -42/-92/-86 
f -41/-91/-85 -42/-92/-86 -40/-90/-84 -39/-89/-83 
f -45/-88/-82 -46/-87/-81 -42/-92/-86 -41/-91/-85 
f -41/-91/-85 -39/-89/-83 -38/-86/-80 -37/-85/-79 
s 16
f -36/-84/-78 -35/-83/-77 -54/-114/-108 
f -34/-82/-76 -33/-81/-75 -42/-80/-74 
s 18
f -36/-84/-78 -32/-79/-73 -47/-78/-99 -31/-77/-72 
s 2
f -32/-76/-73 -30/-75/-71 -49/-107/-101 -47/-104/-99 
s 18
f -29/-74/-70 -31/-77/-72 -48/-73/-100 -69/-72/-133 
s 4
f -53/-102/-96 -49/-107/-97 -30/-75/-69 -32/-76/-68 
s 18
f -36/-84/-78 -54/-114/-108 -53/-111/-105 -32/-79/-73 
s 16
f -29/-74/-70 -36/-84/-78 -31/-77/-72 
f -29/-74/-70 -35/-83/-77 -36/-84/-78 
s 18
f -31/-77/-72 -47/-78/-99 -48/-73/-100 
s 4
f -43/-71/-67 -41/-91/-85 -37/-85/-79 -44/-70/-66 
s 2
f -37/-85/-65 -52/-110/-104 -50/-108/-102 
s 4
f -43/-71/-67 -45/-88/-82 -41/-91/-85 
s 8
f -45/-99/-93 -43/-95/-89 -49/-98/-92 
s 18
f -48/-73/-100 -28/-69/-64 -69/-72/-133 
s 2
f -48/-105/-100 -50/-106/-102 -28/-68/-64 
s 17
f -82/-67/-63 -34/-82/-76 -42/-80/-74 
s 4
f -81/-94/-88 -42/-92/-86 -46/-87/-81 -73/-66/-98 
s 16
f -53/-111/-105 -72/-112/-106 -73/-65/-62 
f -35/-83/-77 -98/-113/-107 -54/-114/-108 
s 2
f -44/-70/-61 -37/-85/-65 -50/-108/-102 
f -50/-106/-102 -51/-64/-103 -27/-63/-60 
s off
f -69/-144/-59 -28/-68/-59 -71/-146/-59 
f -65/-140/-58 -71/-146/-58 -28/-68/-58 
f -27/-63/-57 -51/-64/-57 -64/-139/-57 -65/-140/-57 
f -28/-68/-56 -27/-63/-56 -65/-140/-56 
s 2
f -50/-106/-102 -27/-63/-60 -28/-68/-64 
f -83/-62/-155 -26/-61/-55 -25/-60/-54 -33/-59/-53 
s off
f -25/-60/-52 -24/-58/-52 -33/-59/-52 
f -82/-57/-51 -83/-62/-51 -34/-56/-51 
f -83/-62/-50 -33/-59/-50 -34/-56/-50 
usemtl granite2
s 8
f -98/-55/-49 -55/-115/-109 -97/-116/-110 
usemtl granite1
s 16
f -55/-54/-48 -91/-174/-164 -92/-175/-165 
f -55/-54/-48 -98/-113/-107 -35/-83/-77 
f -91/-174/-164 -35/-83/-77 -29/-74/-70 
f -69/-72/-133 -91/-174/-164 -29/-74/-70 
f -55/-54/-48 -35/-83/-77 -91/-174/-164 
f -91/-53/-164 -69/-144/-133 -70/-145/-134 
f -90/-52/-163 -91/-53/-164 -70/-145/-134 
s 20
f -61/-134/-122 -90/-135/-163 -70/-145/-134 
s 16
f -78/-159/-148 -89/-172/-162 -90/-173/-163 
usemtl granite2
s 8
f -89/-153/-142 -78/-151/-148 -80/-157/-146 
usemtl granite1
s 2
f -74/-121/-47 -100/-167/-157 -85/-168/-158 
f -87/-170/-160 -84/-166/-156 -86/-169/-159 
f -87/-170/-160 -75/-122/-46 -85/-168/-158 
s 4
f -76/-51/-45 -60/-133/-121 -104/-136/-123 
f -66/-141/-44 -63/-138/-125 -67/-142/-131 -68/-143/-132 
f -60/-133/-121 -67/-142/-131 -104/-136/-123 
f -60/-133/-121 -76/-51/-45 -56/-50/-43 
f -61/-134/-122 -67/-142/-131 -60/-133/-121 
s 2
f -23/-49/-42 -58/-124/-116 -84/-125/-156 
f -100/-48/-157 -23/-49/-42 -84/-125/-156 
s off
f -26/-61/-41 -83/-62/-41 -57/-47/-41 
s 16
f -33/-81/-75 -24/-46/-40 -22/-45/-39 -42/-80/-74 
f -22/-44/-39 -40/-43/-38 -42/-42/-74 
s 2
f -38/-86/-37 -52/-110/-104 -37/-85/-65 
f -21/-41/-36 -20/-40/-35 -19/-39/-34 -18/-38/-33 
f -19/-39/-34 -17/-37/-32 -16/-36/-31 -18/-38/-33 
s 1
f -18/-38/-30 -16/-36/-29 -15/-35/-28 -14/-34/-27 
f -13/-33/-26 -21/-41/-36 -18/-38/-30 -14/-34/-27 
f -21/-32/-36 -12/-31/-25 -11/-30/-24 -10/-29/-23 
f -21/-32/-36 -13/-28/-26 -12/-31/-25 
s 2
f -9/-27/-22 -8/-26/-21 -14/-25/-20 -7/-24/-19 
f -8/-26/-21 -12/-23/-18 -13/-22/-17 -14/-25/-20 
s 4
f -6/-21/-16 -11/-20/-15 -12/-19/-14 -5/-18/-13 
f -5/-18/-13 -12/-19/-14 -8/-17/-12 
f -6/-21/-16 -4/-16/-11 -3/-15/-10 
f -2/-14/-9 -5/-18/-13 -8/-17/-12 
s 3
f -10/-13/-23 -20/-40/-35 -21/-41/-36 
s 4
f -5/-18/-13 -2/-14/-9 -4/-16/-11 -6/-21/-16 
s 1
f -16/-12/-29 -9/-11/-8 -7/-10/-7 -15/-9/-28 
f -1/-8/-6 -3/-7/-5 -9/-11/-8 -16/-12/-29 
f -4/-6/-4 -2/-5/-3 -9/-11/-8 
s 2
f -8/-26/-21 -9/-27/-22 -2/-4/-2 
s 1
f -3/-7/-5 -4/-6/-4 -9/-11/-8 
s 2
f -1/-3/-1 -16/-36/-31 -17/-37/-32 
f -88/-171/-161 -81/-163/-153 -73/-2/-137 -94/-177/-167 
f -94/-177/-167 -87/-170/-160 -88/-171/-161 
f -86/-169/-159 -57/-123/-115 -83/-165/-155 
f -88/-171/-161 -86/-169/-159 -83/-165/-155 
s 4
f -60/-133/-121 -56/-50/-43 -79/-132/-149 
s 16
f -93/-158/-147 -102/-185/-150 -59/-126/-117 
s 2
f -94/-177/-167 -93/-176/-166 -59/-120/-113 
f -87/-170/-160 -59/-120/-113 -75/-122/-46 
s 16
f -75/-150/-140 -59/-126/-117 -99/-182/-139 
s 1
f -15/-35/-28 -7/-1/-7 -14/-34/-27 
# 42 polygons - 94 triangles

